<?xml version="1.0" encoding="UTF-8" standalone="no"?>
<svg width="42px" height="47px" viewBox="0 0 42 47" version="1.1" xmlns="http://www.w3.org/2000/svg" xmlns:xlink="http://www.w3.org/1999/xlink" xmlns:sketch="http://www.bohemiancoding.com/sketch/ns">
    <!-- Generator: Sketch 3.3.1 (12002) - http://www.bohemiancoding.com/sketch -->
    <title>cube-open</title>
    <desc>Created with Sketch.</desc>
    <defs></defs>
    <g id="Page-1" stroke="none" stroke-width="1" fill="none" fill-rule="evenodd" sketch:type="MSPage">
        <path d="M19.3833049,45.7242231 L1.77001704,35.6126306 C0.676320273,34.9802299 0,33.8057715 0,32.5477885 L0,15.2343284 C0,12.7643861 1.32879046,10.4597885 3.46848382,9.22396505 L18.4872232,0.547632279 C19.4207836,0.00727913824 20.5110733,-0.139315089 21.5587734,0.135122941 L37.3833049,4.29260342 C38.1022147,4.48181225 38.6286201,5.08012124 38.7240204,5.81820613 C38.8211244,6.55629102 38.4650767,7.27051174 37.8194208,7.6369973 L35.0391823,9.21714671 L39.2078365,11.605269 C40.3594549,12.2206238 41.0868825,13.4359922 41.0868825,14.7655678 L41.0868825,32.6142673 C41.0868825,33.8330448 40.4310051,34.9700024 39.3764906,35.5785389 L21.7478705,45.7242231 C21.0289608,46.138437 20.1226576,46.1486645 19.3833049,45.7242231 L19.3833049,45.7242231 Z M36.9778535,6.15400919 L21.1260647,1.78345571 C20.5264055,1.62492939 19.8892675,1.70504484 19.3390119,2.02380206 L4.32027257,10.7001348 C2.70698467,11.6325423 1.70357751,13.371218 1.70357751,15.2343284 L1.70357751,32.5477885 C1.70357751,33.2006442 2.05451448,33.8074761 2.62010221,34.1364608 L20.2333901,44.2463487 C20.4361158,44.363965 20.693356,44.363965 20.8994889,44.2446442 L38.5264055,34.1006645 C39.0528109,33.7972486 39.3833049,33.2262129 39.3833049,32.6142673 L39.3833049,14.7655678 C39.3833049,14.0649837 39,13.4257647 38.3850085,13.09678 L33.3168654,10.1938734 L31.8415673,11.0342333 L36.3202726,13.4990618 C36.8858603,13.817819 37.2197615,14.3888547 37.2214651,15.0297783 C37.2248722,15.6724065 36.8943782,16.2451467 36.3373083,16.5639039 L21.8586031,24.6794285 C21.1635434,25.0680737 20.3356048,25.074892 19.6354344,24.689656 L4.72572402,16.5229939 C3.57069847,15.8616153 3.09540034,14.4553335 3.60477002,13.2433742 C4.11413969,12.0280058 5.42759796,11.3768547 6.6746167,11.7024302 L19.8262351,15.1286442 C20.427598,15.2837613 21.0545145,15.2019413 21.592845,14.8968207 L36.9778535,6.15400919 L36.9778535,6.15400919 Z M6.02044293,13.3217851 C5.66609881,13.3217851 5.32879046,13.5348581 5.18739353,13.8757749 C4.99829642,14.3223759 5.16354344,14.8098869 5.55706985,15.034892 L20.4548552,23.1947358 C20.6337308,23.2936017 20.8500852,23.2918971 21.0255537,23.1913267 L35.4991482,15.0809158 L30.0971039,12.0245966 L22.4361158,16.3781043 C21.5093697,16.9048207 20.4310051,17.0463012 19.3969336,16.7786815 L6.02044293,13.3217851 L6.02044293,13.3217851 Z" id="cube-open" fill="#231F1F" sketch:type="MSShapeGroup"></path>
    </g>
</svg>