<?xml version="1.0" encoding="UTF-8" standalone="no"?>
<svg width="37px" height="42px" viewBox="0 0 37 42" version="1.1" xmlns="http://www.w3.org/2000/svg" xmlns:xlink="http://www.w3.org/1999/xlink" xmlns:sketch="http://www.bohemiancoding.com/sketch/ns">
    <!-- Generator: Sketch 3.3.1 (12002) - http://www.bohemiancoding.com/sketch -->
    <title>cube</title>
    <desc>Created with Sketch.</desc>
    <defs></defs>
    <g id="Page-1" stroke="none" stroke-width="1" fill="none" fill-rule="evenodd" sketch:type="MSPage">
        <g id="cube" sketch:type="MSLayerGroup" transform="translate(0.000000, -1.000000)" fill="#1C71A0">
            <g id="Page-1" sketch:type="MSShapeGroup">
                <path d="M35.911414,10.9377318 L19.2112436,1.23694398 C18.6626917,0.91989135 17.9488927,0.91989135 17.3969336,1.24376232 L0.69846678,11.022961 C0.265758092,11.276944 0,11.7405908 0,12.2417385 L0,31.3825127 C0,32.0285501 0.347529813,32.6302683 0.909710392,32.9541392 L17.6081772,42.4878778 C18.0408859,42.7350425 18.572402,42.7350425 19.0068143,42.4878778 L35.7052811,32.9524346 C36.2657581,32.6302683 36.6132879,32.0285501 36.6132879,31.3825127 L36.6132879,12.1582139 C36.6132879,11.6553616 36.3458262,11.1900102 35.911414,10.9377318 L35.911414,10.9377318 L35.911414,10.9377318 Z M18.3594549,2.71311376 L34.0596252,11.834343 L18.3049404,20.9214805 L2.55706985,11.9144584 L18.3594549,2.71311376 L18.3594549,2.71311376 Z M1.70357751,13.3889236 L17.4548552,22.3976503 L17.4548552,40.433854 L1.70357751,31.3825127 L1.70357751,13.3889236 L1.70357751,13.3889236 Z M19.1584327,40.4389678 L19.1584327,22.3959457 L34.9063032,13.3139219 L34.8586031,31.4745603 L19.1584327,40.4389678 L19.1584327,40.4389678 Z" id="cube"></path>
            </g>
        </g>
    </g>
</svg>