<?xml version="1.0" encoding="UTF-8" standalone="no"?>
<svg width="37px" height="42px" viewBox="0 0 37 42" version="1.1" xmlns="http://www.w3.org/2000/svg" xmlns:xlink="http://www.w3.org/1999/xlink" xmlns:sketch="http://www.bohemiancoding.com/sketch/ns">
    <!-- Generator: Sketch 3.3.1 (12002) - http://www.bohemiancoding.com/sketch -->
    <title>cube</title>
    <desc>Created with Sketch.</desc>
    <defs></defs>
    <g id="Page-1" stroke="none" stroke-width="1" fill="none" fill-rule="evenodd" sketch:type="MSPage">
        <path d="M35.911414,9.93773176 L19.2112436,0.236943982 C18.6626917,-0.0801086496 17.9488927,-0.0801086496 17.3969336,0.243762318 L0.69846678,10.022961 C0.265758092,10.276944 0,10.7405908 0,11.2417385 L0,30.3825127 C0,31.0285501 0.347529813,31.6302683 0.909710392,31.9541392 L17.6081772,41.4878778 C18.0408859,41.7350425 18.572402,41.7350425 19.0068143,41.4878778 L35.7052811,31.9524346 C36.2657581,31.6302683 36.6132879,31.0285501 36.6132879,30.3825127 L36.6132879,11.1582139 C36.6132879,10.6553616 36.3458262,10.1900102 35.911414,9.93773176 L35.911414,9.93773176 Z M18.3594549,1.71311376 L34.0596252,10.834343 L18.3049404,19.9214805 L2.55706985,10.9144584 L18.3594549,1.71311376 L18.3594549,1.71311376 Z M1.70357751,12.3889236 L17.4548552,21.3976503 L17.4548552,39.433854 L1.70357751,30.3825127 L1.70357751,12.3889236 L1.70357751,12.3889236 Z M19.1584327,39.4389678 L19.1584327,21.3959457 L34.9063032,12.3139219 L34.8586031,30.4745603 L19.1584327,39.4389678 L19.1584327,39.4389678 Z" id="cube" fill="#231F1F" sketch:type="MSShapeGroup"></path>
    </g>
</svg>