<?xml version="1.0" encoding="UTF-8" standalone="no"?>
<svg width="33px" height="33px" viewBox="0 0 33 33" version="1.1" xmlns="http://www.w3.org/2000/svg" xmlns:xlink="http://www.w3.org/1999/xlink" xmlns:sketch="http://www.bohemiancoding.com/sketch/ns">
    <!-- Generator: Sketch 3.3.1 (12002) - http://www.bohemiancoding.com/sketch -->
    <title>Group</title>
    <desc>Created with Sketch.</desc>
    <defs>
        <linearGradient x1="100%" y1="0%" x2="0%" y2="0%" id="linearGradient-1">
            <stop stop-color="#91BD9C" offset="0%"></stop>
            <stop stop-color="#2EBFC2" offset="100%"></stop>
        </linearGradient>
        <linearGradient x1="50%" y1="0%" x2="50%" y2="100%" id="linearGradient-2">
            <stop stop-color="#2EBFC2" offset="0%"></stop>
            <stop stop-color="#91BD9C" offset="100%"></stop>
        </linearGradient>
    </defs>
    <g id="Page-1" stroke="none" stroke-width="1" fill="none" fill-rule="evenodd" sketch:type="MSPage">
        <g id="Group" sketch:type="MSLayerGroup">
            <rect id="Rectangle-1" sketch:type="MSShapeGroup" x="0" y="0" width="33" height="33"></rect>
            <path d="M16.5,32.5 C25.336556,32.5 32.5,25.336556 32.5,16.5 C32.5,7.663444 25.336556,0.5 16.5,0.5 C7.663444,0.5 0.5,7.663444 0.5,16.5 C0.5,25.336556 7.663444,32.5 16.5,32.5 L16.5,32.5 Z M16.5,31.5 C8.21572875,31.5 1.5,24.7842712 1.5,16.5 C1.5,8.21572875 8.21572875,1.5 16.5,1.5 C24.7842712,1.5 31.5,8.21572875 31.5,16.5 C31.5,24.7842712 24.7842712,31.5 16.5,31.5 L16.5,31.5 Z" id="Shape" fill="url(#linearGradient-1)" sketch:type="MSShapeGroup"></path>
            <path d="M16.5,10.5 L16.5,22.5" id="path-3" fill-opacity="0.01" fill="#E6E7E8" sketch:type="MSShapeGroup"></path>
            <path d="M16,10.5 L16,22.5 L17,22.5 L17,10.5 L16,10.5 L16,10.5 Z" id="Shape" fill="url(#linearGradient-2)" sketch:type="MSShapeGroup"></path>
            <path d="M22.5,16.5 L10.5,16.5" id="path-4" fill-opacity="0.01" fill="#E6E7E8" sketch:type="MSShapeGroup"></path>
            <path d="M22.5,16 L10.5,16 L10.5,17 L22.5,17 L22.5,16 L22.5,16 Z" id="Shape" fill="url(#linearGradient-2)" sketch:type="MSShapeGroup"></path>
        </g>
    </g>
</svg>