<?xml version="1.0" encoding="UTF-8" standalone="no"?>
<svg width="18px" height="39px" viewBox="0 0 18 39" version="1.1" xmlns="http://www.w3.org/2000/svg" xmlns:xlink="http://www.w3.org/1999/xlink" xmlns:sketch="http://www.bohemiancoding.com/sketch/ns">
    <!-- Generator: Sketch 3.3.1 (12002) - http://www.bohemiancoding.com/sketch -->
    <title>info</title>
    <desc>Created with Sketch.</desc>
    <defs></defs>
    <g id="Page-1" stroke="none" stroke-width="1" fill="none" fill-rule="evenodd" sketch:type="MSPage">
        <g id="info" sketch:type="MSLayerGroup" fill="#1C71A0">
            <g id="Page-1" sketch:type="MSShapeGroup">
                <path d="M12.2691652,9.86555119 C9.60477002,9.86555119 7.81431005,8.13008703 7.81431005,5.54564334 C7.81431005,2.87937031 9.9846678,0 13.4923339,0 C15.2385009,0 18.0085179,1.2018686 18.0085179,4.42730887 C18.0085179,7.63229181 14.9846678,9.86555119 12.2691652,9.86555119 L12.2691652,9.86555119 L12.2691652,9.86555119 Z M13.4923339,1.70477816 C11.0374787,1.70477816 9.51788756,3.69766382 9.51788756,5.54564334 C9.51788756,7.18393515 10.5468484,8.16077304 12.2691652,8.16077304 C13.9182283,8.16077304 16.3049404,6.83104608 16.3049404,4.42730887 C16.3049404,1.77808362 13.5195911,1.70477816 13.4923339,1.70477816 L13.4923339,1.70477816 Z M12.4122658,30.7473788 C12.7751278,30.6638447 13.4752981,30.3740324 14.8517888,29.5028908 C15.6456559,28.9982765 16.7768313,29.2181928 17.3287905,29.9734096 C17.8875639,30.7388549 17.7785349,31.8265034 17.0800681,32.452157 C14.4139693,34.8286177 9.45655877,38.2040785 5.89097104,38.2040785 C3.9165247,38.2040785 2.75127768,37.0448294 2.60647359,34.9377235 C2.4770017,33.0317816 3.8109029,27.4298805 5.06984668,22.3325939 C5.24020443,21.6421587 5.3867121,21.0523055 5.4923339,20.6124727 C5.03918228,20.7778362 4.29982964,21.1034488 3.09369676,21.7444454 C2.18057922,22.2337167 0.940374787,21.809227 0.494037479,20.8698942 C0.109028961,20.0618294 0.347529813,19.0849915 1.06303237,18.5462816 C5.73935264,15.0344386 10.8603066,12.7994744 12.9352641,12.7994744 C13.9437819,12.7994744 15.6473595,13.2427167 15.7308348,16.2124403 C15.7751278,17.7995887 14.5979557,22.3666894 13.2810903,27.3088413 C12.8586031,28.894285 12.4821124,30.3450512 12.4122658,30.7473788 L12.4122658,30.7473788 Z M15.7614991,30.9451331 C14.0562181,32.0242577 12.9914821,32.482843 12.2044293,32.482843 C11.5979557,32.482843 11.2436116,32.2134881 11.0528109,31.9867526 C10.7291312,31.6031775 10.6286201,31.0746962 10.746167,30.377442 C10.8279387,29.8983993 11.165247,28.6283396 11.6337308,26.8690085 C12.5451448,23.4509283 14.0681431,17.7296928 14.0272572,16.2601741 C13.9778535,14.5042526 13.3270869,14.5042526 12.9352641,14.5042526 C11.2316865,14.5042526 6.34582624,16.7102355 2.08688245,19.9083993 C1.93526405,20.026029 2.04258944,20.2578788 2.22146508,20.2578788 C4.26575809,19.1923925 5.41056218,18.7457406 6.12265758,18.7457406 C6.97274276,18.7457406 7.46507666,19.3799181 7.33901193,20.1419539 C7.2879046,20.448814 7.04940375,21.4205375 6.72402044,22.7400358 C5.89948893,26.0779915 4.18398637,33.0215529 4.30664395,34.8200939 C4.40204429,36.2197167 4.9846678,36.4993003 5.89097104,36.4993003 C8.94548552,36.4993003 13.6439523,33.2329454 15.9471891,31.1803925 C16.0698467,31.0695819 15.9488927,30.8854659 15.7614991,30.9451331 L15.7614991,30.9451331 L15.7614991,30.9451331 Z" id="info"></path>
            </g>
        </g>
    </g>
</svg>