<?xml version="1.0" encoding="UTF-8" standalone="no"?>
<svg width="41px" height="42px" viewBox="0 0 41 42" version="1.1" xmlns="http://www.w3.org/2000/svg" xmlns:xlink="http://www.w3.org/1999/xlink" xmlns:sketch="http://www.bohemiancoding.com/sketch/ns">
    <!-- Generator: Sketch 3.3.1 (12002) - http://www.bohemiancoding.com/sketch -->
    <title>infocircle</title>
    <desc>Created with Sketch.</desc>
    <defs></defs>
    <g id="Page-1" stroke="none" stroke-width="1" fill="none" fill-rule="evenodd" sketch:type="MSPage">
        <path d="M20.5025554,41.0340102 C9.19761499,41.0340102 0,31.8282082 0,20.5170051 C0,9.20409727 9.19761499,0 20.5025554,0 C31.8091993,0 41.0068143,9.20409727 41.0068143,20.5170051 C41.0068143,31.8282082 31.8091993,41.0340102 20.5025554,41.0340102 L20.5025554,41.0340102 Z M20.5025554,1.70477816 C10.1379898,1.70477816 1.70357751,10.14343 1.70357751,20.5170051 C1.70357751,30.8905802 10.1379898,39.3292321 20.5025554,39.3292321 C30.8705281,39.3292321 39.3032368,30.8905802 39.3032368,20.5170051 C39.3032368,10.14343 30.8705281,1.70477816 20.5025554,1.70477816 L20.5025554,1.70477816 Z M17.955707,33.1920307 C16.5076661,33.1920307 15.6166951,32.31407 15.5110733,30.7780648 C15.4020443,29.1755734 16.8841567,23.4321758 17.2708688,21.8671894 C17.0153322,21.9848191 16.6848382,22.1484778 16.2606474,22.3735085 C15.5212947,22.7707218 14.516184,22.4263567 14.153322,21.6660256 C13.8415673,21.0113908 14.0357751,20.2186689 14.6149915,19.7822457 C17.3083475,17.7586741 20.8705281,15.9567235 22.5741056,15.9567235 C23.1908007,15.9567235 24.6337308,16.2005068 24.6984668,18.4780904 C24.7274276,19.5589198 23.9829642,22.4519283 23.0817717,25.8427321 C22.8943782,26.5399863 22.7342419,27.1383635 22.6337308,27.5458055 C22.8722317,27.4281758 23.2061329,27.2440597 23.6712095,26.9491331 C24.318569,26.5399863 25.2385009,26.7155785 25.6882453,27.3310034 C26.1431005,27.9515427 26.0545145,28.8380273 25.4855196,29.3460512 C23.6882453,30.9502474 20.3850085,33.1920307 17.955707,33.1920307 L17.955707,33.1920307 Z M18.109029,19.8538464 C18.8381601,19.8538464 19.3083475,20.4215375 19.1942078,21.1085631 C19.1618399,21.3114317 19.0034072,21.9592474 18.7870528,22.8372082 C18.2504259,25.0090956 17.132879,29.5284625 17.2112436,30.6621399 C17.2640545,31.4326997 17.5264055,31.4872526 17.955707,31.4872526 C19.4412266,31.4872526 21.5860307,30.1813925 22.7938671,29.3187747 C22.0528109,29.5591485 21.4735945,29.4381092 21.1158433,29.0136195 C20.846678,28.6965307 20.7563884,28.2618123 20.8483816,27.7196928 C20.8994889,27.4213567 21.1345826,26.534872 21.4344123,25.4046041 C21.9897785,23.3213652 23.0204429,19.4481092 22.9948893,18.5258242 C22.9710392,17.6615017 22.7495741,17.6615017 22.5741056,17.6615017 C21.3373083,17.6615017 18.2725724,19.3679846 17.2231687,20.0430768 C17.5894378,19.9118089 17.8739353,19.8538464 18.109029,19.8538464 L18.109029,19.8538464 Z M22.1379898,14.6218823 C20.2453152,14.6218823 18.923339,13.3364795 18.923339,11.4970239 C18.923339,9.60642491 20.4582624,7.56751024 22.9386712,7.56751024 C24.1959114,7.56751024 26.1908007,8.43524232 26.1908007,10.7639693 C26.1908007,13.0722389 24.0936968,14.6218823 22.1379898,14.6218823 L22.1379898,14.6218823 Z M22.9386712,9.2722884 C21.3611584,9.2722884 20.6269165,10.5986058 20.6269165,11.4970239 C20.6269165,12.7790171 21.6831346,12.9171041 22.1379898,12.9171041 C22.9812606,12.9171041 24.4872232,12.1976877 24.4872232,10.7639693 C24.4872232,9.28933618 22.9540034,9.2722884 22.9386712,9.2722884 L22.9386712,9.2722884 Z" id="infocircle" fill="#231F1F" sketch:type="MSShapeGroup"></path>
    </g>
</svg>