<?xml version="1.0" encoding="UTF-8" standalone="no"?>
<svg width="41px" height="37px" viewBox="0 0 41 37" version="1.1" xmlns="http://www.w3.org/2000/svg" xmlns:xlink="http://www.w3.org/1999/xlink" xmlns:sketch="http://www.bohemiancoding.com/sketch/ns">
    <!-- Generator: Sketch 3.3.1 (12002) - http://www.bohemiancoding.com/sketch -->
    <title>mail</title>
    <desc>Created with Sketch.</desc>
    <defs></defs>
    <g id="Page-1" stroke="none" stroke-width="1" fill="none" fill-rule="evenodd" sketch:type="MSPage">
        <path d="M38.8943782,11.8519445 L22.1039182,0.632372338 C20.9693356,-0.12616756 19.4190801,-0.124462976 18.2896082,0.635781506 L1.57069847,11.8536491 C0.586030664,12.5133231 0,13.6144844 0,14.7991703 L0,32.9291262 C0,34.8570107 1.56558773,36.4235234 3.49063032,36.4235234 L36.9795571,36.4235234 C38.9045997,36.4235234 40.4701874,34.8570107 40.4701874,32.9291262 L40.4701874,14.8025795 C40.4701874,13.616189 39.8807496,12.5133231 38.8943782,11.8519445 L38.8943782,11.8519445 Z M38.7717206,33.3995914 L26.9608177,23.1175404 L38.7666099,14.9662195 L38.7717206,33.3995914 L38.7717206,33.3995914 Z M38.0715503,13.3775472 L21.253833,24.9857645 C20.6626917,25.3965693 19.8722317,25.3965693 19.2827939,24.9891737 L2.51788756,13.2701584 C2.51788756,13.2701584 2.51788756,13.2701584 2.51788756,13.2684538 L19.2367973,2.05058626 C19.8245315,1.65853193 20.5809199,1.66364568 21.1567291,2.05058626 L38.0715503,13.3775472 L38.0715503,13.3775472 Z M1.70357751,14.7991703 C1.70357751,14.792352 1.70528109,14.7872382 1.70528109,14.7804199 L13.5638842,23.0698121 L1.67291312,33.4251601 L1.70357751,14.7991703 L1.70357751,14.7991703 Z M2.90289608,34.5996185 L15.0034072,24.0772212 L18.3100511,26.3886372 C19.4821124,27.2017238 21.0545145,27.2034284 22.2231687,26.3869326 L25.5110733,24.1164267 L37.5672913,34.5996185 L2.90289608,34.5996185 L2.90289608,34.5996185 Z" id="mail" fill="#231F1F" sketch:type="MSShapeGroup"></path>
    </g>
</svg>