<?xml version="1.0" encoding="UTF-8" standalone="no"?>
<svg width="42px" height="42px" viewBox="0 0 42 42" version="1.1" xmlns="http://www.w3.org/2000/svg" xmlns:xlink="http://www.w3.org/1999/xlink" xmlns:sketch="http://www.bohemiancoding.com/sketch/ns">
    <!-- Generator: Sketch 3.3.1 (12002) - http://www.bohemiancoding.com/sketch -->
    <title>Pattern</title>
    <desc>Created with Sketch.</desc>
    <defs></defs>
    <g id="Page-1" stroke="none" stroke-width="1" fill="none" fill-rule="evenodd" sketch:type="MSPage">
        <path d="M41,0 L1,0 C0.447,0 0,0.447 0,1 L0,41 C0,41.553 0.447,42 1,42 L41,42 C41.552,42 42,41.553 42,41 L42,1 C42,0.447 41.552,0 41,0 L41,0 Z M40,20 L34.967,20 C34.836,17.748 34.262,15.597 33.269,14.287 C34.312,13.565 35,12.363 35,11 C35,8.794 33.205,7 31,7 C29.637,7 28.435,7.687 27.712,8.73 C26.402,7.737 24.252,7.164 22,7.033 L22,2 L40,2 L40,20 L40,20 Z M9.043,22 L12.957,22 C12.751,25.118 11.638,27 11,27 C10.361,27 9.248,25.118 9.043,22 L9.043,22 Z M31,13 C29.896,13 29,12.103 29,11 C29,9.897 29.896,9 31,9 C32.103,9 33,9.897 33,11 C33,12.103 32.103,13 31,13 L31,13 Z M28.73,14.287 C27.737,15.597 27.163,17.748 27.032,20 L22,20 L22,14.968 C24.252,14.836 26.402,14.263 27.712,13.27 C27.988,13.667 28.332,14.012 28.73,14.287 L28.73,14.287 Z M22,12.957 L22,9.043 C25.118,9.249 27,10.361 27,11 C27,11.639 25.118,12.751 22,12.957 L22,12.957 Z M20,12.957 C16.881,12.751 15,11.639 15,11 C15,10.361 16.881,9.249 20,9.043 L20,12.957 L20,12.957 Z M20,14.968 L20,20 L14.967,20 C14.836,17.748 14.262,15.597 13.269,14.287 C13.667,14.012 14.012,13.667 14.287,13.27 C15.597,14.263 17.747,14.836 20,14.968 L20,14.968 Z M11,13 C9.897,13 9,12.103 9,11 C9,9.897 9.897,9 11,9 C12.103,9 13,9.897 13,11 C13,12.103 12.103,13 11,13 L11,13 Z M11,15 C11.638,15 12.751,16.882 12.957,20 L9.043,20 C9.248,16.882 10.361,15 11,15 L11,15 Z M11,29 C12.103,29 13,29.898 13,31 C13,32.103 12.103,33 11,33 C9.897,33 9,32.103 9,31 C9,29.898 9.897,29 11,29 L11,29 Z M13.269,27.713 C14.262,26.403 14.836,24.253 14.967,22 L20,22 L20,27.033 C17.747,27.164 15.597,27.737 14.287,28.73 C14.012,28.333 13.667,27.988 13.269,27.713 L13.269,27.713 Z M20,29.043 L20,32.957 C16.881,32.751 15,31.639 15,31 C15,30.361 16.881,29.249 20,29.043 L20,29.043 Z M22,29.043 C25.118,29.249 27,30.361 27,31 C27,31.639 25.118,32.751 22,32.957 L22,29.043 L22,29.043 Z M22,27.033 L22,22 L27.032,22 C27.163,24.253 27.737,26.403 28.73,27.713 C28.332,27.988 27.988,28.333 27.712,28.73 C26.402,27.737 24.252,27.164 22,27.033 L22,27.033 Z M31,29 C32.103,29 33,29.898 33,31 C33,32.103 32.103,33 31,33 C29.896,33 29,32.103 29,31 C29,29.898 29.896,29 31,29 L31,29 Z M31,27 C30.361,27 29.248,25.118 29.042,22 L32.957,22 C32.751,25.118 31.638,27 31,27 L31,27 Z M29.042,20 C29.248,16.882 30.361,15 31,15 C31.638,15 32.751,16.882 32.957,20 L29.042,20 L29.042,20 Z M20,2 L20,7.033 C17.747,7.164 15.597,7.737 14.287,8.73 C13.564,7.687 12.362,7 11,7 C8.794,7 7,8.794 7,11 C7,12.363 7.687,13.565 8.73,14.287 C7.737,15.597 7.163,17.748 7.032,20 L2,20 L2,2 L20,2 L20,2 Z M2,22 L7.032,22 C7.163,24.253 7.737,26.403 8.73,27.713 C7.687,28.435 7,29.637 7,31 C7,33.206 8.794,35 11,35 C12.362,35 13.564,34.313 14.287,33.27 C15.597,34.263 17.747,34.836 20,34.967 L20,40 L2,40 L2,22 L2,22 Z M22,40 L22,34.967 C24.252,34.836 26.402,34.263 27.712,33.27 C28.435,34.313 29.637,35 31,35 C33.205,35 35,33.206 35,31 C35,29.637 34.312,28.435 33.269,27.713 C34.262,26.403 34.836,24.253 34.967,22 L40,22 L40,40 L22,40 L22,40 Z" id="Pattern" fill="#231F1F" sketch:type="MSShapeGroup"></path>
    </g>
</svg>