<?xml version="1.0" encoding="UTF-8" standalone="no"?>
<svg width="33px" height="33px" viewBox="0 0 33 33" version="1.1" xmlns="http://www.w3.org/2000/svg" xmlns:xlink="http://www.w3.org/1999/xlink" xmlns:sketch="http://www.bohemiancoding.com/sketch/ns">
    <!-- Generator: Sketch 3.3.1 (12002) - http://www.bohemiancoding.com/sketch -->
    <title>printer</title>
    <desc>Created with Sketch.</desc>
    <defs></defs>
    <g id="Page-1" stroke="none" stroke-width="1" fill="none" fill-rule="evenodd" sketch:type="MSPage">
        <path d="M27.6937341,7.37117861 L24.9990073,7.37117861 L24.9990073,2.06840614 C24.9990073,0.927714448 24.1289762,0 23.0592103,0 L9.70575583,0 C8.63598992,0 7.76595879,0.927714448 7.76595879,2.06840614 L7.76595879,7.37117861 L5.0780027,7.37117861 C2.27833054,7.37117861 0,9.80056314 0,12.7858544 L0,21.2507975 C0,24.2360887 2.27833054,26.6636684 5.0780027,26.6636684 L7.76595879,26.6636684 L7.76595879,30.7084312 C7.76595879,31.9050745 8.67999928,32.8797162 9.80223788,32.8797162 L22.9627282,32.8797162 C24.0849668,32.8797162 24.9990073,31.9050745 24.9990073,30.7084312 L24.9990073,26.6636684 L27.6937341,26.6636684 C30.4934062,26.6636684 32.7717368,24.2360887 32.7717368,21.2507975 L32.7717368,12.7858544 C32.7717368,9.80056314 30.4934062,7.37117861 27.6937341,7.37117861 L27.6937341,7.37117861 Z M9.45862636,2.06840614 C9.45862636,1.92401479 9.56864975,1.80489192 9.70575583,1.80489192 L23.0592103,1.80489192 C23.1963163,1.80489192 23.3063397,1.92401479 23.3063397,2.06840614 L23.3063397,7.37117861 L9.45862636,7.37117861 L9.45862636,2.06840614 L9.45862636,2.06840614 Z M23.3063397,30.7084312 C23.3063397,30.9105791 23.152307,31.0748242 22.9627282,31.0748242 L9.80223788,31.0748242 C9.61265911,31.0748242 9.45862636,30.9105791 9.45862636,30.7084312 L9.45862636,21.0847474 C9.45862636,20.8825995 9.61265911,20.7183544 9.80223788,20.7183544 L22.9627282,20.7183544 C23.152307,20.7183544 23.3063397,20.8825995 23.3063397,21.0847474 L23.3063397,30.7084312 L23.3063397,30.7084312 Z M31.0790692,21.2507975 C31.0790692,23.2397884 29.5607464,24.8605813 27.6937341,24.8605813 L24.9990073,24.8605813 L24.9990073,21.0847474 C24.9990073,19.8881041 24.0849668,18.9134625 22.9627282,18.9134625 L9.80223788,18.9134625 C8.67999928,18.9134625 7.76595879,19.8881041 7.76595879,21.0847474 L7.76595879,24.8605813 L5.0780027,24.8605813 C3.21268304,24.8605813 1.69266757,23.2397884 1.69266757,21.2507975 L1.69266757,12.7858544 C1.69266757,10.7950586 3.21268304,9.17607053 5.0780027,9.17607053 L27.6937341,9.17607053 C29.5607464,9.17607053 31.0790692,10.7950586 31.0790692,12.7858544 L31.0790692,21.2507975 Z M27.612486,10.5965205 L26.6950602,10.5965205 C25.6252943,10.5965205 24.7552632,11.5242349 24.7552632,12.6649266 L24.7552632,13.5673726 C24.7552632,14.7080643 25.6252943,15.6357787 26.6950602,15.6357787 L27.612486,15.6357787 C28.6822519,15.6357787 29.552283,14.7080643 29.552283,13.5673726 L29.552283,12.6649266 C29.552283,11.5242349 28.6822519,10.5965205 27.612486,10.5965205 Z M27.8596155,13.5673726 C27.8596155,13.7117639 27.7478994,13.8308868 27.612486,13.8308868 L26.6950602,13.8308868 C26.5596468,13.8308868 26.4479307,13.7117639 26.4479307,13.5673726 L26.4479307,12.6649266 C26.4479307,12.5187304 26.5596468,12.4014124 26.6950602,12.4014124 L27.612486,12.4014124 C27.7478994,12.4014124 27.8596155,12.5187304 27.8596155,12.6649266 L27.8596155,13.5673726 L27.8596155,13.5673726 Z" id="printer" fill="#231F1F" sketch:type="MSShapeGroup"></path>
    </g>
</svg>