<?xml version="1.0" encoding="UTF-8" standalone="no"?>
<svg width="21px" height="21px" viewBox="0 0 21 21" version="1.1" xmlns="http://www.w3.org/2000/svg" xmlns:xlink="http://www.w3.org/1999/xlink" xmlns:sketch="http://www.bohemiancoding.com/sketch/ns">
    <!-- Generator: Sketch 3.3.1 (12002) - http://www.bohemiancoding.com/sketch -->
    <title>full-plus</title>
    <desc>Created with Sketch.</desc>
    <defs>
        <linearGradient x1="100%" y1="0%" x2="0%" y2="0%" id="linearGradient-1">
            <stop stop-color="#91BD9C" offset="0%"></stop>
            <stop stop-color="#2EBFC2" offset="100%"></stop>
        </linearGradient>
        <linearGradient x1="50%" y1="0%" x2="50%" y2="100%" id="linearGradient-2">
            <stop stop-color="#2EBFC2" offset="0%"></stop>
            <stop stop-color="#91BD9C" offset="100%"></stop>
        </linearGradient>
    </defs>
    <g id="Page-1" stroke="none" stroke-width="1" fill="none" fill-rule="evenodd" sketch:type="MSPage">
        <g id="full-plus" sketch:type="MSLayerGroup">
            <g id="Page-1" sketch:type="MSShapeGroup">
                <g id="Group">
                    <rect id="Rectangle-1" x="0" y="0" width="21" height="21"></rect>
                    <path d="M10.5,20.6818182 C16.1232629,20.6818182 20.6818182,16.1232629 20.6818182,10.5 C20.6818182,4.87673709 16.1232629,0.318181818 10.5,0.318181818 C4.87673709,0.318181818 0.318181818,4.87673709 0.318181818,10.5 C0.318181818,16.1232629 4.87673709,20.6818182 10.5,20.6818182 L10.5,20.6818182 L10.5,20.6818182 Z M10.5,20.0454545 C5.22819102,20.0454545 0.954545455,15.7718089 0.954545455,10.5 C0.954545455,5.22819102 5.22819102,0.954545455 10.5,0.954545455 C15.7718089,0.954545455 20.0454545,5.22819102 20.0454545,10.5 C20.0454545,15.7718089 15.7718089,20.0454545 10.5,20.0454545 L10.5,20.0454545 L10.5,20.0454545 Z" id="Shape" fill="url(#linearGradient-1)"></path>
                    <path d="M10.5,6.68181818 L10.5,14.3181818" id="path-3" fill-opacity="0.01" fill="#E6E7E8"></path>
                    <path d="M10.1818182,6.68181818 L10.1818182,14.3181818 L10.8181818,14.3181818 L10.8181818,6.68181818 L10.1818182,6.68181818 L10.1818182,6.68181818 Z" id="Shape" fill="url(#linearGradient-2)"></path>
                    <path d="M14.3181818,10.5 L6.68181818,10.5" id="path-4" fill-opacity="0.01" fill="#E6E7E8"></path>
                    <path d="M14.3181818,10.1818182 L6.68181818,10.1818182 L6.68181818,10.8181818 L14.3181818,10.8181818 L14.3181818,10.1818182 L14.3181818,10.1818182 Z" id="Shape" fill="url(#linearGradient-2)"></path>
                </g>
            </g>
        </g>
    </g>
</svg>